<?xml version="1.0" encoding="UTF-8" standalone="no"?>
<!-- Created with Inkscape (http://www.inkscape.org/) -->

<svg
   width="3.4395828mm"
   height="3.4395599mm"
   viewBox="0 0 3.4395828 3.4395599"
   version="1.1"
   id="svg5"
   xml:space="preserve"
   xmlns="http://www.w3.org/2000/svg"
   xmlns:svg="http://www.w3.org/2000/svg"><defs
     id="defs2" /><g
     id="layer1"
     transform="translate(-53.515847,-200.42529)"><g
       style="fill:#1f1f1f"
       id="g163"
       transform="matrix(0.00661458,0,0,0.00661458,52.060639,205.32008)"><path
         d="M 457.31,-457.31 H 242.69 q -9.64,0 -16.16,-6.58 -6.53,-6.58 -6.53,-16.31 0,-9.72 6.53,-16.11 6.52,-6.38 16.16,-6.38 h 214.62 v -214.62 q 0,-9.64 6.58,-16.16 6.58,-6.53 16.31,-6.53 9.72,0 16.11,6.53 6.38,6.52 6.38,16.16 v 214.62 h 214.62 q 9.64,0 16.16,6.58 6.53,6.58 6.53,16.31 0,9.72 -6.53,16.11 -6.52,6.38 -16.16,6.38 H 502.69 v 214.62 q 0,9.64 -6.58,16.16 -6.58,6.53 -16.31,6.53 -9.72,0 -16.11,-6.53 -6.38,-6.52 -6.38,-16.16 z"
         id="path154" /></g></g></svg>
