<?xml version="1.0" encoding="UTF-8" standalone="no"?>
<!-- Created with Inkscape (http://www.inkscape.org/) -->

<svg
   width="6.4738064mm"
   height="6.3914032mm"
   viewBox="0 0 6.4738064 6.3914032"
   version="1.1"
   id="svg5"
   xml:space="preserve"
   xmlns:inkscape="http://www.inkscape.org/namespaces/inkscape"
   xmlns:sodipodi="http://sodipodi.sourceforge.net/DTD/sodipodi-0.dtd"
   xmlns="http://www.w3.org/2000/svg"
   xmlns:svg="http://www.w3.org/2000/svg"><sodipodi:namedview
     id="namedview7"
     pagecolor="#ffffff"
     bordercolor="#000000"
     borderopacity="0.25"
     inkscape:showpageshadow="2"
     inkscape:pageopacity="0.0"
     inkscape:pagecheckerboard="0"
     inkscape:deskcolor="#d1d1d1"
     inkscape:document-units="mm"
     showgrid="false" /><defs
     id="defs2" /><g
     inkscape:label="Layer 1"
     inkscape:groupmode="layer"
     id="layer1"
     transform="translate(-24.236319,-113.63778)"><g
       style="fill:#1f1f1f"
       id="g141"
       transform="matrix(0.01102431,0,0,0.01102431,22.111164,122.12358)"><path
         d="m 275.84,-454.87 222.06,221.79 q 7.18,7.49 7.39,17.53 0.22,10.04 -7.6,17.75 -7.82,7.72 -17.69,7.82 -9.87,0.11 -17.69,-7.71 L 201.87,-458.13 q -4.89,-4.9 -7,-10.21 -2.1,-5.32 -2.1,-11.69 0,-6.38 2.1,-11.66 2.11,-5.28 7,-10.18 l 260.44,-260.44 q 7.23,-7.23 17.34,-7.42 10.12,-0.19 18.04,7.42 7.82,7.93 7.82,17.85 0,9.92 -7.82,17.49 l -221.85,221.84 h 479.03 q 10.87,0 18,7.14 7.13,7.13 7.13,17.99 0,10.87 -7.13,18 -7.13,7.13 -18,7.13 z"
         id="path132" /></g></g></svg>
