<?xml version="1.0" encoding="UTF-8" standalone="no"?>
<!-- Created with Inkscape (http://www.inkscape.org/) -->

<svg
   width="6.0427551mm"
   height="6.0270386mm"
   viewBox="0 0 6.0427551 6.0270386"
   version="1.1"
   id="svg5"
   xml:space="preserve"
   xmlns="http://www.w3.org/2000/svg"
   xmlns:svg="http://www.w3.org/2000/svg"><defs
     id="defs2" /><g
     id="layer1"
     transform="translate(-34.284367,-163.56097)"><g
       style="fill:#1f1f1f"
       id="g141"
       transform="matrix(0.01102431,0,0,0.01102431,31.948647,171.86397)"><path
         d="m 264.69,-463.08 227.44,226.93 q 4.36,4.96 4.96,11.71 0.6,6.75 -5.04,12.17 -5.64,5.78 -12.05,5.82 -6.41,0.04 -12.05,-5.6 L 220.4,-459.6 q -4.45,-4.45 -6.49,-9.42 -2.04,-4.96 -2.04,-11.05 0,-6.08 2.04,-10.98 2.04,-4.9 6.49,-9.35 l 247.55,-247.55 q 4.79,-4.79 11.52,-5.18 6.74,-0.38 12.58,5.18 5.64,5.85 5.64,12.19 0,6.35 -5.64,11.48 l -227.36,227.36 h 478.39 q 7.39,0 12.16,4.76 4.76,4.77 4.76,12.17 0,7.4 -4.76,12.16 -4.77,4.75 -12.16,4.75 z"
         id="path132" /></g></g></svg>
