<svg width="19" height="11" viewBox="0 0 19 11" fill="none" xmlns="http://www.w3.org/2000/svg">
<path d="M8.90337 10.7433C8.74587 10.6831 8.59309 10.5789 8.44504 10.4308L0.389204 2.375C0.12087 2.10667 -0.00871246 1.77805 0.000454206 1.38917C0.00962087 1.00028 0.14851 0.671527 0.417121 0.402916C0.685732 0.134305 1.01448 0 1.40337 0C1.79226 0 2.12087 0.134305 2.3892 0.402916L9.41712 7.45833L16.4725 0.402916C16.7411 0.134305 17.0653 0.0047208 17.445 0.0141652C17.8245 0.0233319 18.1485 0.162221 18.4171 0.430832C18.6857 0.699165 18.82 1.02778 18.82 1.41667C18.82 1.80556 18.6857 2.1343 18.4171 2.40292L10.3892 10.4308C10.2411 10.5789 10.0884 10.6831 9.93087 10.7433C9.77365 10.8033 9.6024 10.8333 9.41712 10.8333C9.23184 10.8333 9.06059 10.8033 8.90337 10.7433Z" fill="#1F1F1F"/>
</svg>
