<?xml version="1.0" encoding="UTF-8" standalone="no"?>
<!-- Created with Inkscape (http://www.inkscape.org/) -->

<svg
   width="5.0932312mm"
   height="8.319603mm"
   viewBox="0 0 5.0932312 8.319603"
   version="1.1"
   id="svg5"
   xml:space="preserve"
   xmlns="http://www.w3.org/2000/svg"
   xmlns:svg="http://www.w3.org/2000/svg"><defs
     id="defs2" /><g
     id="layer1"
     transform="translate(-31.220696,-119.19146)"><g
       style="fill:#1f1f1f"
       id="g141"
       transform="matrix(0.01102431,0,0,0.01102431,28.762275,128.64293)"><path
         d="M 446.67,-136.33 V -400 l -167.34,167.33 q -9.66,9.67 -23.33,9.67 -13.67,0 -23.33,-9.67 -9.67,-9.66 -9.67,-23.33 0,-13.67 9.67,-23.33 L 433.33,-480 232.67,-680.67 Q 223,-690.33 223,-704 q 0,-13.67 9.67,-23.33 9.66,-9.67 23.33,-9.67 13.67,0 23.33,9.67 L 446.67,-560 v -263.67 q 0,-15.33 10.33,-24.5 10.33,-9.16 23,-9.16 6,0 12,2.33 6,2.33 11.33,7.67 l 172,172 q 5.34,5.33 7.5,11 2.17,5.66 2.17,12.33 0,6.67 -2.17,12.33 -2.16,5.67 -7.5,11 L 526.67,-480 675.33,-331.33 q 5.34,5.33 7.5,11 2.17,5.66 2.17,12.33 0,6.67 -2.17,12.33 -2.16,5.67 -7.5,11 l -172,172 q -5.33,5.34 -11.33,7.67 -6,2.33 -12,2.33 -12.67,0 -23,-9.16 -10.33,-9.17 -10.33,-24.5 z m 66.66,-423.67 92,-92 -92,-90 z m 0,342 92,-90 -92,-92 z"
         id="path132" /></g></g></svg>
