<?xml version="1.0" encoding="UTF-8" standalone="no"?>
<!-- Created with Inkscape (http://www.inkscape.org/) -->

<svg
   width="3.3357391mm"
   height="3.3357239mm"
   viewBox="0 0 3.3357391 3.3357239"
   version="1.1"
   id="svg5"
   xml:space="preserve"
   xmlns:inkscape="http://www.inkscape.org/namespaces/inkscape"
   xmlns:sodipodi="http://sodipodi.sourceforge.net/DTD/sodipodi-0.dtd"
   xmlns="http://www.w3.org/2000/svg"
   xmlns:svg="http://www.w3.org/2000/svg"><sodipodi:namedview
     id="namedview7"
     pagecolor="#ffffff"
     bordercolor="#000000"
     borderopacity="0.25"
     inkscape:showpageshadow="2"
     inkscape:pageopacity="0.0"
     inkscape:pagecheckerboard="0"
     inkscape:deskcolor="#d1d1d1"
     inkscape:document-units="mm"
     showgrid="false" /><defs
     id="defs2" /><g
     inkscape:label="Layer 1"
     inkscape:groupmode="layer"
     id="layer1"
     transform="translate(-85.668062,-133.9631)"><g
       style="fill:#1f1f1f"
       id="g141"
       transform="matrix(0.00661458,0,0,0.00661458,84.160931,138.80596)"><path
         d="m 480,-448 -213.08,213.08 q -6.69,6.69 -15.8,6.88 -9.12,0.19 -16.2,-6.88 -7.07,-7.08 -7.07,-16 0,-8.93 7.07,-16 L 448,-480 234.92,-693.08 q -6.69,-6.69 -6.88,-15.8 -0.19,-9.12 6.88,-16.2 7.08,-7.07 16,-7.07 8.93,0 16,7.07 L 480,-512 693.08,-725.08 q 6.69,-6.69 15.8,-6.88 9.12,-0.19 16.2,6.88 7.07,7.08 7.07,16 0,8.93 -7.07,16 L 512,-480 725.08,-266.92 q 6.69,6.69 6.88,15.8 0.19,9.12 -6.88,16.2 -7.08,7.07 -16,7.07 -8.93,0 -16,-7.07 z"
         id="path132" /></g></g></svg>
