<svg width="4" height="25" viewBox="0 0 4 25" fill="none" xmlns="http://www.w3.org/2000/svg">
<path d="M1.84292 24.2308C1.33431 24.2308 0.9 24.0497 0.54 23.6875C0.18 23.3253 0 22.8899 0 22.3813C0 21.8726 0.181111 21.4365 0.543334 21.0729C0.905556 20.7096 1.34097 20.5279 1.84958 20.5279C2.35819 20.5279 2.7925 20.7101 3.1525 21.0746C3.5125 21.4388 3.6925 21.8768 3.6925 22.3888C3.6925 22.8974 3.51139 23.3315 3.14917 23.6913C2.78694 24.051 2.35153 24.2308 1.84292 24.2308ZM1.84292 13.9617C1.33431 13.9617 0.9 13.7806 0.54 13.4183C0.18 13.0561 0 12.6207 0 12.1121C0 11.6035 0.181111 11.1692 0.543334 10.8092C0.905556 10.4492 1.34097 10.2692 1.84958 10.2692C2.35819 10.2692 2.7925 10.4503 3.1525 10.8125C3.5125 11.1747 3.6925 11.6101 3.6925 12.1188C3.6925 12.6274 3.51139 13.0617 3.14917 13.4217C2.78694 13.7817 2.35153 13.9617 1.84292 13.9617ZM1.84292 3.70292C1.33431 3.70292 0.9 3.52069 0.54 3.15625C0.18 2.79208 0 2.35403 0 1.84208C0 1.33347 0.181111 0.899306 0.543334 0.539584C0.905556 0.179862 1.34097 0 1.84958 0C2.35819 0 2.7925 0.181113 3.1525 0.543335C3.5125 0.905557 3.6925 1.34097 3.6925 1.84958C3.6925 2.3582 3.51139 2.79431 3.14917 3.15792C2.78694 3.52125 2.35153 3.70292 1.84292 3.70292Z" fill="#1F1F1F"/>
</svg>
