<?xml version="1.0" encoding="UTF-8" standalone="no"?>
<svg
   height="18.25"
   viewBox="0 -960 516.06312 730"
   width="12.901578"
   fill="#1f1f1f"
   version="1.1"
   id="svg134"
   xmlns="http://www.w3.org/2000/svg"
   xmlns:svg="http://www.w3.org/2000/svg">
  <defs
     id="defs138" />
  <path
     d="m 187.07156,-549.04 q -29.04,-29.04 -29.04,-70.96 v -240 q 0,-41.92 29.04,-70.96 29.04,-29.04 70.96,-29.04 41.92,0 70.96,29.04 29.04,29.04 29.04,70.96 v 240 q 0,41.92 -29.04,70.96 -29.04,29.04 -70.96,29.04 -41.92,0 -70.96,-29.04 z m 70.96,-190.96 z m -30,480 v -101.85 q -89.31,-10.31 -153.080005,-73.38 -63.76,-63.08 -74.68999982,-153.77 -1.60999998,-12.77 6.69000002,-21.88 8.3099998,-9.12 21.0799998,-9.12 12.77,0 21.38,8.81 8.62,8.8 11.47,21.57 10.92,73.47 67.190005,121.54 56.27,48.08 129.96,48.08 74.69,0 130.46,-48.58 55.77,-48.57 66.69,-121.04 2.85,-12.77 11.47,-21.57 8.61,-8.81 21.38,-8.81 12.77,0 21.08,9.12 8.3,9.11 6.69,21.88 -10.93,88.69 -74.19,152.58 -63.27,63.88 -153.58,74.57 V -260 q 0,12.77 -8.62,21.38 -8.61,8.62 -21.38,8.62 -12.77,0 -21.38,-8.62 -8.62,-8.61 -8.62,-21.38 z m 58.5,-331.5 q 11.5,-11.5 11.5,-28.5 v -240 q 0,-17 -11.5,-28.5 -11.5,-11.5 -28.5,-11.5 -17,0 -28.5,11.5 -11.5,11.5 -11.5,28.5 v 240 q 0,17 11.5,28.5 11.5,11.5 28.5,11.5 17,0 28.5,-11.5 z"
     id="path132" />
</svg>
