<svg width="31" height="32" viewBox="0 0 31 32" fill="none" xmlns="http://www.w3.org/2000/svg">
<path d="M13.0646 31.6667C12.673 31.6667 12.3278 31.5383 12.0292 31.2817C11.7303 31.0247 11.551 30.7033 11.4913 30.3175L10.9601 26.6346C10.4309 26.4551 9.86882 26.1969 9.27382 25.86C8.67854 25.5231 8.16048 25.1651 7.71965 24.7863L4.34673 26.3067C3.97007 26.4661 3.59243 26.4839 3.21382 26.36C2.8352 26.2361 2.5409 25.9972 2.3309 25.6433L0.221732 21.9358C0.011732 21.5819 -0.0491015 21.2146 0.0392318 20.8338C0.127565 20.4532 0.335482 20.1382 0.662982 19.8888L3.70715 17.625C3.65715 17.3472 3.62132 17.0513 3.59965 16.7371C3.57798 16.4229 3.56715 16.1269 3.56715 15.8492C3.56715 15.5822 3.57798 15.2926 3.59965 14.9804C3.62132 14.6679 3.65715 14.355 3.70715 14.0417L0.662982 11.7779C0.335482 11.5285 0.130204 11.2107 0.0471486 10.8246C-0.035907 10.4387 0.0277042 10.0688 0.237982 9.71458L2.3309 6.05542C2.5409 5.71236 2.8352 5.47611 3.21382 5.34667C3.59243 5.2175 3.97007 5.23264 4.34673 5.39208L7.70382 6.88583C8.17659 6.50333 8.70132 6.14625 9.27798 5.81458C9.85465 5.48319 10.4101 5.23167 10.9442 5.06L11.4913 1.34958C11.551 0.963473 11.7303 0.641944 12.0292 0.385C12.3278 0.128333 12.673 0 13.0646 0H17.253C17.6446 0 17.9898 0.128333 18.2884 0.385C18.5873 0.641944 18.7666 0.963473 18.8263 1.34958L19.3576 5.04792C19.9331 5.25958 20.4927 5.51764 21.0363 5.82208C21.5802 6.12653 22.0847 6.48111 22.5497 6.88583L25.9867 5.39208C26.3637 5.23264 26.7385 5.2175 27.1113 5.34667C27.4841 5.47611 27.7755 5.71236 27.9855 6.05542L30.0959 9.73083C30.3059 10.0847 30.3667 10.4567 30.2784 10.8467C30.1901 11.2367 29.9822 11.5471 29.6547 11.7779L26.5467 14.045C26.6178 14.3556 26.6608 14.6617 26.6755 14.9633C26.6899 15.2647 26.6971 15.5547 26.6971 15.8333C26.6971 16.1011 26.6872 16.3831 26.6672 16.6792C26.6474 16.975 26.6044 17.2907 26.538 17.6263L29.598 19.8888C29.9255 20.1196 30.136 20.43 30.2297 20.82C30.3235 21.21 30.2653 21.5819 30.0551 21.9358L27.9642 25.6271C27.747 25.981 27.4465 26.2199 27.0626 26.3438C26.6787 26.4679 26.3019 26.4501 25.9322 26.2904L22.5497 24.7704C22.066 25.1707 21.5521 25.5358 21.008 25.8658C20.4638 26.1961 19.9137 26.4471 19.3576 26.6187L18.8263 30.3175C18.7666 30.7033 18.5873 31.0247 18.2884 31.2817C17.9898 31.5383 17.6446 31.6667 17.253 31.6667H13.0646ZM13.413 29.5725H16.8746L17.4738 24.9842C18.3471 24.7619 19.1565 24.4358 19.9017 24.0058C20.6473 23.5761 21.3619 23.0282 22.0455 22.3621L26.3276 24.1988L27.9859 21.2863L24.2122 18.4829C24.3327 18.0099 24.4227 17.5586 24.4822 17.1292C24.5416 16.6997 24.5713 16.2678 24.5713 15.8333C24.5713 15.3811 24.5444 14.9456 24.4905 14.5267C24.4369 14.1078 24.3441 13.6708 24.2122 13.2158L28.018 10.3804L26.3597 7.46792L22.0297 9.31292C21.4533 8.67542 20.7596 8.1132 19.9488 7.62625C19.138 7.13903 18.3077 6.82444 17.458 6.6825L16.9046 2.09417H13.4217L12.8705 6.66667C11.9716 6.85611 11.1433 7.16847 10.3855 7.60375C9.62743 8.03875 8.9159 8.60028 8.2509 9.28833L3.95798 7.46792L2.29965 10.3804L6.06798 13.1592C5.94048 13.5844 5.84618 14.0193 5.78507 14.4638C5.72368 14.9082 5.69298 15.37 5.69298 15.8492C5.69298 16.3017 5.72368 16.7447 5.78507 17.1783C5.84618 17.6122 5.9352 18.0471 6.05215 18.4829L2.29965 21.2863L3.95798 24.1988L8.23465 22.3696C8.88993 23.0376 9.59826 23.5875 10.3596 24.0192C11.121 24.4508 11.9526 24.7778 12.8542 25L13.413 29.5725ZM15.133 20.6304C16.4671 20.6304 17.6002 20.1644 18.5321 19.2325C19.4641 18.3006 19.9301 17.1675 19.9301 15.8333C19.9301 14.4992 19.4641 13.3661 18.5321 12.4342C17.6002 11.5022 16.4671 11.0363 15.133 11.0363C13.8005 11.0363 12.6678 11.5022 11.7351 12.4342C10.8026 13.3661 10.3363 14.4992 10.3363 15.8333C10.3363 17.1675 10.8026 18.3006 11.7351 19.2325C12.6678 20.1644 13.8005 20.6304 15.133 20.6304Z" fill="#1F1F1F"/>
</svg>
