<svg width="31" height="31" viewBox="0 0 31 31" fill="none" xmlns="http://www.w3.org/2000/svg">
<path d="M24.01 25.5179C23.6539 25.7621 23.2839 25.9886 22.9 26.1975C22.5161 26.4061 22.1172 26.5917 21.7033 26.7542C21.4347 26.8722 21.1539 26.8739 20.8608 26.7592C20.5678 26.6447 20.365 26.4503 20.2525 26.1758C20.14 25.9189 20.1507 25.6624 20.2846 25.4063C20.4185 25.1501 20.6232 24.9631 20.8988 24.845C21.1888 24.7375 21.466 24.6167 21.7304 24.4825C21.9951 24.3486 22.2557 24.1853 22.5121 23.9925L15.8838 17.3642V22.6183C15.8838 23.0928 15.6632 23.4194 15.2221 23.5983C14.7807 23.7775 14.3958 23.6994 14.0675 23.3642L8.73667 18.0329H3.85417C3.47722 18.0329 3.16584 17.9099 2.92 17.6638C2.67389 17.4176 2.55084 17.1062 2.55084 16.7296V11.0029C2.55084 10.6263 2.67389 10.3149 2.92 10.0687C3.16584 9.82264 3.47722 9.69958 3.85417 9.69958H8.19167L0.300836 1.79792C0.0997246 1.59708 -0.00055326 1.35125 2.29568e-06 1.06041C0.000280073 0.769304 0.106252 0.518055 0.317919 0.306666C0.529308 0.102222 0.77778 0 1.06334 0C1.34889 0 1.5975 0.102222 1.80917 0.306666L30.0204 28.5179C30.2215 28.7188 30.3229 28.9647 30.3246 29.2558C30.3263 29.5467 30.2249 29.7979 30.0204 30.0096C29.809 30.221 29.5558 30.3267 29.2608 30.3267C28.9661 30.3267 28.7129 30.221 28.5013 30.0096L24.01 25.5179ZM28.2771 13.8246C28.2771 11.4051 27.606 9.19972 26.2638 7.20833C24.9215 5.21667 23.1439 3.75403 20.9308 2.82042C20.6444 2.69153 20.4404 2.50167 20.3188 2.25083C20.1971 2.00028 20.195 1.74639 20.3125 1.48917C20.4286 1.20417 20.6376 1.01264 20.9396 0.914581C21.2415 0.816248 21.546 0.831527 21.8529 0.960416C24.4185 2.07847 26.4796 3.78819 28.0363 6.08958C29.5926 8.39097 30.3708 10.9693 30.3708 13.8246C30.3708 14.9549 30.2372 16.0558 29.97 17.1275C29.7025 18.1992 29.3038 19.2246 28.7738 20.2037C28.5835 20.5835 28.35 20.8125 28.0733 20.8908C27.7967 20.9692 27.5344 20.9549 27.2867 20.8479C27.0389 20.7412 26.8532 20.5736 26.7296 20.345C26.606 20.1164 26.6172 19.8714 26.7633 19.61C27.2711 18.7389 27.6503 17.8199 27.9008 16.8529C28.1517 15.886 28.2771 14.8765 28.2771 13.8246ZM20.8475 8.37792C21.6822 9.00181 22.3136 9.81208 22.7417 10.8087C23.1697 11.8051 23.3838 12.8243 23.3838 13.8662C23.3838 14.1532 23.3704 14.4318 23.3438 14.7021C23.3171 14.9726 23.2628 15.2425 23.1808 15.5117C23.1039 15.7886 22.931 15.9618 22.6621 16.0312C22.3932 16.1007 22.1508 16.0275 21.935 15.8117L20.2483 14.125C20.1108 13.9875 20.0114 13.8439 19.95 13.6942C19.8889 13.5447 19.8583 13.381 19.8583 13.2029V8.895C19.8583 8.64583 19.9701 8.46306 20.1938 8.34667C20.4174 8.23 20.6353 8.24042 20.8475 8.37792ZM12.745 6.62167C12.6075 6.48417 12.5414 6.32639 12.5467 6.14833C12.5522 5.97028 12.6238 5.8125 12.7613 5.675L14.0675 4.36833C14.3958 4.03305 14.7807 3.955 15.2221 4.13417C15.6632 4.31305 15.8838 4.63611 15.8838 5.10333V8.18458C15.8838 8.47097 15.7465 8.67056 15.4721 8.78333C15.1974 8.89639 14.9579 8.84528 14.7538 8.63L12.745 6.62167ZM13.79 20.0862V15.2979L10.2858 11.7937H4.64459V15.9387H9.6425L13.79 20.0862Z" fill="#1F1F1F"/>
</svg>
