<svg width="28" height="26" viewBox="0 0 28 26" fill="none" xmlns="http://www.w3.org/2000/svg">
<path d="M25.7263 12.9738C25.7263 10.5355 25.0549 8.32661 23.7121 6.34717C22.3693 4.36745 20.5919 2.90828 18.38 1.96967C18.0936 1.84078 17.8896 1.65092 17.7679 1.40008C17.6463 1.14953 17.6426 0.893973 17.7571 0.633417C17.8763 0.35175 18.0868 0.161887 18.3887 0.0638319C18.6907 -0.0345014 18.9951 -0.0192221 19.3021 0.109667C21.8676 1.22772 23.9288 2.94147 25.4854 5.25092C27.0418 7.56036 27.82 10.1345 27.82 12.9734C27.82 15.812 27.0418 18.3862 25.4854 20.6959C23.9288 23.0059 21.8676 24.7199 19.3021 25.838C18.9951 25.9669 18.6907 25.9822 18.3887 25.8838C18.0868 25.7858 17.8763 25.5959 17.7571 25.3143C17.6426 25.0537 17.6463 24.7981 17.7679 24.5476C17.8896 24.2967 18.0936 24.1069 18.38 23.978C20.5919 23.0394 22.3693 21.5802 23.7121 19.6005C25.0549 17.6211 25.7263 15.4122 25.7263 12.9738ZM6.18583 17.1822H1.30333C0.929167 17.1822 0.618333 17.0584 0.370833 16.8109C0.123611 16.5634 0 16.2527 0 15.8788V10.1522C0 9.77828 0.123611 9.46758 0.370833 9.22008C0.618333 8.97258 0.929167 8.84883 1.30333 8.84883H6.18583L11.5167 3.51758C11.8522 3.1823 12.2389 3.10536 12.6767 3.28675C13.1142 3.46814 13.3329 3.79008 13.3329 4.25258V21.7676C13.3329 22.2373 13.1142 22.5629 12.6767 22.7443C12.2389 22.9256 11.8522 22.8487 11.5167 22.5134L6.18583 17.1822ZM20.8329 13.0172C20.8329 14.1922 20.5701 15.2748 20.0446 16.2651C19.519 17.2554 18.7812 18.0517 17.8312 18.6542C17.6251 18.7895 17.4186 18.797 17.2117 18.6767C17.0047 18.5565 16.9012 18.3773 16.9012 18.1392V7.8255C16.9012 7.58744 17.0047 7.41008 17.2117 7.29342C17.4186 7.17647 17.6251 7.18119 17.8312 7.30758C18.7812 7.91786 19.519 8.73106 20.0446 9.74717C20.5701 10.7636 20.8329 11.8536 20.8329 13.0172ZM11.2392 6.90883L7.10875 10.943H2.09375V15.088H7.10875L11.2392 19.1392V6.90883Z" fill="#1F1F1F"/>
</svg>
